<svg width="870" height="358" viewBox="0 0 870 358" fill="none" xmlns="http://www.w3.org/2000/svg">
<rect x="296" y="174" width="40" height="31" rx="5" fill="#31B9E4"/>
<rect x="167" y="150" width="19" height="17" rx="5" fill="#31B9E4"/>
<rect x="133" y="67" width="19" height="17" rx="5" fill="#31B9E4"/>
<path d="M137 167C137 164.239 139.239 162 142 162H171C173.761 162 176 164.239 176 167V193C176 195.761 173.761 198 171 198H142C139.239 198 137 195.761 137 193V167Z" fill="#31B9E4"/>
<path d="M284.007 244.18L213.037 357.691L194.057 301.991L284.007 244.18Z" fill="#102F54"/>
<path d="M194.105 302L182.5 261L234.498 275.962L194.105 302Z" fill="#65A0D8"/>
<path d="M256.735 222.177L234.348 275.979L182.5 261L256.735 222.177Z" fill="#3C71C0"/>
<path d="M234.28 276.123L256.751 222.185L283.799 244.108L234.28 276.123Z" fill="#65A0D8"/>
<path d="M278.034 320.913L260.595 281.909L236.558 320.469L278.034 320.913Z" fill="#3C71C0"/>
<path d="M284.105 244.5L278.105 321L269.105 301.5L267.105 296.5L265.105 292L263.105 287.5L261.605 284L260.605 282L272.605 262.5L284.105 244.5Z" fill="#358DBF"/>
<path d="M278.105 321L284.105 244.5L303.605 247.5L278.105 321Z" fill="#31B9E4"/>
<path d="M303.605 247.5L354.605 267L278.105 321L303.605 247.5Z" fill="#102F54"/>
<path d="M322.105 198L354.605 267L303.605 247.5L322.105 198Z" fill="#31B9E4"/>
<path d="M322.105 198L376.105 227.5L354.605 267L322.105 198Z" fill="#1F5089"/>
<path d="M376.105 227.5L378.105 198H322.605L376.105 227.5Z" fill="#31B9E4"/>
<rect x="353.105" y="178" width="25" height="20" fill="#31B9E4"/>
<path d="M182.5 261L194.105 302L168.605 282.5L182.5 261Z" fill="#1F5089"/>
<path d="M182.5 261L257 222H182L182.5 261Z" fill="#31B9E4"/>
<path d="M131.105 246.5L156.105 266L182.5 261L168.863 282L123.605 284.5L131.105 246.5Z" fill="#102F54"/>
<path d="M109.5 216.5L131.105 246.5L123.605 284.5L100.5 256.5L109.5 216.5Z" fill="#1F5089"/>
<path d="M62 187L109.5 216.5L100.5 256.5H31.5L26.5 214.5L62 187Z" fill="#102F54"/>
<path d="M0 210.5L26.5 214.5L31.5 256.5L7.5 243L0 210.5Z" fill="#1F5089"/>
<path d="M13 165L62 187L26.5 214.5L0 210.5L13 165Z" fill="#65A0D8"/>
<path d="M124.5 187L109.5 216.5L62 187H124.5Z" fill="#65A0D8"/>
<path d="M62 187L97 146.5L41 131L62 187Z" fill="#65A0D8"/>
<path d="M41 131L62 187L13 165L41 131Z" fill="#31B9E4"/>
<path d="M97 146.5L120.899 146.912C123.699 146.96 125.914 149.3 125.809 152.099L124.5 187H62L97 146.5Z" fill="#31B9E4"/>
<path d="M97 103L97 146.5L41 131L97 103Z" fill="#31B9E4"/>
<rect x="97" y="103" width="30" height="25" fill="#31B9E4"/>
<path d="M124.085 187H147C149.761 187 152 189.239 152 192V241L109.5 216.5L124.085 187Z" fill="#31B9E4"/>
<path d="M152 215.8H177.055C179.795 215.8 182.024 218.005 182.055 220.745L182.5 261L152 262.8V215.8Z" fill="#31B9E4"/>
<path d="M152 241L152 262.785L131 246.686L109.5 216.5L152 241Z" fill="#31B9E4"/>
<path d="M156 266L182 261L152.039 262.8L156 266Z" fill="#31B9E4"/>
<rect x="186" y="181" width="30" height="29" rx="5" fill="#31B9E4"/>
<rect x="155" y="105" width="28" height="27" rx="5" fill="#31B9E4"/>
<rect x="316" y="135" width="34" height="32" rx="5" fill="#31B9E4"/>
<rect x="244" y="136" width="45" height="45" rx="5" fill="#31B9E4"/>
<rect x="221" y="88" width="35" height="35" rx="5" fill="#31B9E4"/>
<rect x="210" y="42" width="25" height="25" rx="5" fill="#31B9E4"/>
<rect x="249" width="15" height="15" rx="5" fill="#31B9E4"/>
<rect x="338" y="88" width="15" height="15" rx="5" fill="#31B9E4"/>
<rect x="267" y="46" width="15" height="15" rx="5" fill="#31B9E4"/>
<rect x="295" y="81" width="20" height="20" rx="5" fill="#31B9E4"/>
<path d="M416.864 221V175.56H453.664V221H444.896V183.304H425.632V221H416.864ZM463.556 221V175.56H472.324V208.584L494.34 175.56H502.532V221H493.764V188.36L472.004 221H463.556ZM512.427 221V175.56H521.195V193.864H525.675L539.179 175.56H549.035L532.523 197.576L550.315 221H539.627L525.547 201.864H521.195V221H512.427ZM550.984 197.96C550.984 195.187 551.475 192.477 552.456 189.832C553.48 187.144 554.952 184.712 556.872 182.536C558.792 180.317 561.139 178.568 563.912 177.288C566.685 175.965 569.843 175.304 573.384 175.304C577.565 175.304 581.171 176.221 584.2 178.056C587.272 179.891 589.555 182.28 591.048 185.224L584.264 189.896C583.496 188.189 582.493 186.845 581.256 185.864C580.019 184.84 578.696 184.136 577.288 183.752C575.88 183.325 574.493 183.112 573.128 183.112C570.909 183.112 568.968 183.56 567.304 184.456C565.683 185.352 564.317 186.525 563.208 187.976C562.099 189.427 561.267 191.048 560.712 192.84C560.2 194.632 559.944 196.424 559.944 198.216C559.944 200.221 560.264 202.163 560.904 204.04C561.544 205.875 562.44 207.517 563.592 208.968C564.787 210.376 566.195 211.507 567.816 212.36C569.48 213.171 571.293 213.576 573.256 213.576C574.664 213.576 576.093 213.341 577.544 212.872C578.995 212.403 580.339 211.656 581.576 210.632C582.813 209.608 583.773 208.285 584.456 206.664L591.688 210.824C590.792 213.085 589.32 215.005 587.272 216.584C585.267 218.163 583.005 219.357 580.488 220.168C577.971 220.979 575.475 221.384 573 221.384C569.757 221.384 566.792 220.723 564.104 219.4C561.416 218.035 559.091 216.243 557.128 214.024C555.208 211.763 553.693 209.245 552.584 206.472C551.517 203.656 550.984 200.819 550.984 197.96ZM629.163 213.256V221H597.611V175.56H628.587V183.304H606.443V194.248H625.579V201.416H606.443V213.256H629.163ZM664.977 221V183.304H651.665L651.409 190.984C651.195 197 650.705 201.971 649.937 205.896C649.169 209.821 648.059 212.915 646.609 215.176C645.158 217.395 643.323 218.973 641.105 219.912C638.929 220.808 636.305 221.256 633.233 221.256V213.64C634.811 213.64 636.177 213.299 637.329 212.616C638.481 211.933 639.441 210.696 640.209 208.904C641.019 207.112 641.659 204.573 642.129 201.288C642.598 198.003 642.918 193.757 643.089 188.552L643.537 175.56H673.745V221H664.977ZM683.427 221V175.56H692.195V191.816H701.539C704.909 191.816 707.747 192.413 710.051 193.608C712.397 194.803 714.168 196.488 715.363 198.664C716.6 200.797 717.219 203.336 717.219 206.28C717.219 209.181 716.621 211.741 715.427 213.96C714.275 216.179 712.568 217.907 710.307 219.144C708.045 220.381 705.293 221 702.051 221H683.427ZM692.195 213.832H700.835C702.541 213.832 703.949 213.491 705.059 212.808C706.168 212.125 706.979 211.229 707.491 210.12C708.003 208.968 708.259 207.688 708.259 206.28C708.259 205.043 708.003 203.869 707.491 202.76C707.021 201.651 706.232 200.755 705.123 200.072C704.056 199.347 702.605 198.984 700.771 198.984H692.195V213.832ZM761.944 175.56V221H753.176V201.608H732.568V221H723.736V175.56H732.568V193.928H753.176V175.56H761.944ZM771.424 221V175.56H780.256V191.816H789.536C792.906 191.816 795.744 192.413 798.048 193.608C800.394 194.803 802.186 196.488 803.424 198.664C804.661 200.797 805.28 203.336 805.28 206.28C805.28 209.181 804.682 211.741 803.488 213.96C802.293 216.179 800.565 217.907 798.304 219.144C796.042 220.381 793.29 221 790.048 221H771.424ZM780.256 213.832H788.832C790.581 213.832 791.989 213.491 793.056 212.808C794.165 212.125 794.976 211.229 795.488 210.12C796 208.968 796.256 207.688 796.256 206.28C796.256 205.043 796 203.869 795.488 202.76C795.018 201.651 794.229 200.755 793.12 200.072C792.053 199.347 790.602 198.984 788.768 198.984H780.256V213.832ZM812 221V175.624H820.832V221H812ZM830.619 221V175.56H839.387V208.584L861.403 175.56H869.595V221H860.826V188.36L839.067 221H830.619ZM850.139 172.744C847.707 172.744 845.595 172.36 843.803 171.592C842.053 170.781 840.688 169.672 839.707 168.264C838.768 166.856 838.299 165.277 838.299 163.528H844.315C844.315 164.765 844.763 165.875 845.659 166.856C846.597 167.795 848.091 168.264 850.139 168.264C852.144 168.264 853.616 167.816 854.555 166.92C855.493 166.024 855.963 164.893 855.963 163.528H862.043C862.043 165.277 861.552 166.856 860.571 168.264C859.632 169.672 858.267 170.781 856.475 171.592C854.725 172.36 852.613 172.744 850.139 172.744ZM539.736 296V250.56H559C561.091 250.56 563.011 250.987 564.76 251.84C566.509 252.693 568.024 253.845 569.304 255.296C570.627 256.747 571.651 258.368 572.376 260.16C573.101 261.952 573.464 263.787 573.464 265.664C573.464 268.224 572.867 270.656 571.672 272.96C570.477 275.264 568.835 277.141 566.744 278.592C564.653 280.043 562.179 280.768 559.32 280.768H548.568V296H539.736ZM548.568 273.024H558.808C559.875 273.024 560.835 272.725 561.688 272.128C562.541 271.531 563.224 270.677 563.736 269.568C564.248 268.416 564.504 267.115 564.504 265.664C564.504 264.085 564.205 262.741 563.608 261.632C563.053 260.523 562.307 259.691 561.368 259.136C560.472 258.581 559.491 258.304 558.424 258.304H548.568V273.024ZM588.651 250.56H597.611L614.315 296H605.227L601.003 284.672H585.131L580.97 296H571.883L588.651 250.56ZM599.403 278.464L593.131 259.712L586.603 278.464H599.403ZM633.831 296.448C630.119 296.448 626.791 295.701 623.847 294.208C620.903 292.715 618.578 290.624 616.871 287.936L623.463 283.84C624.53 285.461 625.916 286.763 627.623 287.744C629.33 288.683 631.335 289.152 633.639 289.152C636.37 289.152 638.396 288.555 639.719 287.36C641.084 286.165 641.767 284.587 641.767 282.624C641.767 281.344 641.468 280.235 640.871 279.296C640.316 278.315 639.463 277.568 638.311 277.056C637.159 276.501 635.708 276.224 633.959 276.224H628.519V269.504H634.023C635.388 269.504 636.54 269.269 637.479 268.8C638.46 268.288 639.186 267.605 639.655 266.752C640.167 265.899 640.423 264.917 640.423 263.808C640.423 262.656 640.146 261.653 639.591 260.8C639.079 259.947 638.29 259.285 637.223 258.816C636.199 258.304 634.876 258.048 633.255 258.048C630.951 258.048 628.967 258.517 627.303 259.456C625.639 260.352 624.359 261.547 623.463 263.04L617.127 258.56C618.834 256.043 621.01 254.016 623.655 252.48C626.343 250.944 629.671 250.176 633.639 250.176C636.796 250.176 639.506 250.667 641.767 251.648C644.028 252.587 645.778 253.973 647.015 255.808C648.295 257.643 648.935 259.861 648.935 262.464C648.935 264.555 648.423 266.517 647.399 268.352C646.418 270.144 644.839 271.531 642.663 272.512C645.223 273.28 647.186 274.645 648.551 276.608C649.959 278.571 650.663 280.853 650.663 283.456C650.663 286.272 649.916 288.661 648.423 290.624C646.972 292.544 644.988 293.995 642.471 294.976C639.954 295.957 637.074 296.448 633.831 296.448ZM662.277 296.32V289.024H665.861C666.97 289.024 667.802 288.789 668.357 288.32C668.912 287.851 669.402 287.104 669.829 286.08L670.853 283.84L652.805 250.56H662.533L674.757 274.88L685.381 250.56H694.661L676.549 290.24C675.44 292.501 674.181 294.08 672.773 294.976C671.365 295.872 669.488 296.32 667.141 296.32H662.277ZM735.792 296V266.176L724.144 288.384H719.216L707.568 266.176V296H698.736V250.56H708.208L721.648 276.416L735.216 250.56H744.624V296H735.792Z" fill="#31B9E4"/>
</svg>
